<?xml version="1.0" encoding="iso-8859-1"?>
<!-- Generator: Adobe Illustrator 17.1.0, SVG Export Plug-In . SVG Version: 6.00 Build 0)  -->
<!DOCTYPE svg PUBLIC "-//W3C//DTD SVG 1.1//EN" "http://www.w3.org/Graphics/SVG/1.1/DTD/svg11.dtd">
<svg version="1.1" id="Capa_1" xmlns="http://www.w3.org/2000/svg" xmlns:xlink="http://www.w3.org/1999/xlink" x="0px" y="0px"
	 viewBox="0 0 219 219" style="enable-background:new 0 0 219 219;" xml:space="preserve">
<path d="M63.003,198.245c-0.029,0-0.059,0-0.088-0.001H4c-1.437,0-2.763-0.771-3.475-2.019c-0.712-1.248-0.7-2.782,0.032-4.019
	l52.75-89.147c0.72-1.217,2.029-1.963,3.442-1.963h29.853L74.547,80.216c-7.166-12.411-7.166-27.229,0-39.641
	c7.166-12.411,19.999-19.82,34.329-19.82h1.247c14.331,0,27.164,7.409,34.329,19.82c7.166,12.411,7.166,27.229,0,39.641
	l-12.056,20.881h29.854c1.414,0,2.723,0.746,3.442,1.963l6.962,11.766c0.032,0.05,0.062,0.102,0.091,0.154l9.278,15.68
	c0.022,0.036,0.044,0.073,0.065,0.111l36.353,61.437c0.732,1.237,0.744,2.771,0.032,4.019c-0.711,1.248-2.038,2.019-3.475,2.019
	h-83.431c-0.049,0-0.097,0-0.146,0H63.091C63.061,198.244,63.032,198.245,63.003,198.245z M134.854,190.244h73.132l-30.969-52.339
	l-47.539,22.026L134.854,190.244z M68.219,190.244h58.509l-5.667-31.949c-0.317-1.788,0.609-3.565,2.257-4.328l49.603-22.981
	l-5.447-9.206l-45.681,15.602c-1.107,0.378-2.323,0.253-3.329-0.342c-1.006-0.595-1.702-1.6-1.904-2.751l-0.729-4.157l-2.867,4.965
	c-0.714,1.238-2.035,2-3.464,2s-2.75-0.762-3.464-2l-15.011-26h-0.959L68.219,190.244z M11.015,190.244h48.92l21.846-81.147h-22.75
	L11.015,190.244z M122.06,119.342l1.572,8.958l39.681-13.553l-3.343-5.65h-31.994L122.06,119.342z M108.877,28.755
	c-11.438,0-21.682,5.914-27.401,15.82c-5.719,9.906-5.719,21.734,0,31.641l28.024,48.54l28.025-48.54
	c5.719-9.906,5.719-21.734,0-31.641c-5.719-9.906-15.962-15.82-27.401-15.82H108.877z M109.5,77.553c-8.96,0-16.25-7.29-16.25-16.25
	s7.29-16.25,16.25-16.25s16.25,7.29,16.25,16.25S118.461,77.553,109.5,77.553z M109.5,53.053c-4.549,0-8.25,3.701-8.25,8.25
	s3.701,8.25,8.25,8.25s8.25-3.701,8.25-8.25S114.049,53.053,109.5,53.053z"/>
<g>
</g>
<g>
</g>
<g>
</g>
<g>
</g>
<g>
</g>
<g>
</g>
<g>
</g>
<g>
</g>
<g>
</g>
<g>
</g>
<g>
</g>
<g>
</g>
<g>
</g>
<g>
</g>
<g>
</g>
</svg>
